{
  "accessors": [
    {
      "bufferView": 2,
      "componentType": 5126,
      "count": 1805,
      "max": [
        85.3123779296875,
        34.75288009643555,
        42.59478759765625
      ],
      "min": [
        -85.3123779296875,
        -34.9527702331543,
        -242.68362426757813
      ],
      "type": "VEC3"
    },
    {
      "bufferView": 2,
      "byteOffset": 21660,
      "componentType": 5126,
      "count": 1805,
      "max": [
        0.9997888803482056,
        0.999967098236084,
        1.0
      ],
      "min": [
        -0.9997888803482056,
        -0.9999900460243225,
        -1.0
      ],
      "type": "VEC3"
    },
    {
      "bufferView": 3,
      "componentType": 5126,
      "count": 1805,
      "max": [
        0.9998945593833923,
        0.9999756217002869,
        0.9999987483024597,
        1.0
      ],
      "min": [
        -1.0,
        -0.9999367594718933,
        -0.9999238848686218,
        -1.0
      ],
      "type": "VEC4"
    },
    {
      "bufferView": 1,
      "componentType": 5126,
      "count": 1805,
      "max": [
        0.9923369288444519,
        0.987136721611023
      ],
      "min": [
        0.0002420279197394848,
        0.007059662137180567
      ],
      "type": "VEC2"
    },
    {
      "bufferView": 0,
      "componentType": 5125,
      "count": 3654,
      "type": "SCALAR"
    },
    {
      "bufferView": 4,
      "componentType": 5126,
      "count": 1,
      "max": [
        0.0
      ],
      "min": [
        0.0
      ],
      "type": "SCALAR"
    },
    {
      "bufferView": 5,
      "componentType": 5126,
      "count": 1,
      "max": [
        1.935648833750747e-05,
        0.7078532576560974,
        -1.905988756334409e-05,
        0.7063595056533813
      ],
      "min": [
        1.935648833750747e-05,
        0.7078532576560974,
        -1.905988756334409e-05,
        0.7063595056533813
      ],
      "type": "VEC4"
    }
  ],
  "animations": [
    {
      "channels": [
        {
          "sampler": 0,
          "target": {
            "node": 4,
            "path": "rotation"
          }
        }
      ],
      "name": "Take 001",
      "samplers": [
        {
          "input": 5,
          "interpolation": "LINEAR",
          "output": 6
        }
      ]
    }
  ],
  "asset": {
    "extras": {
      "author": "kamilhakimi19 (https://sketchfab.com/kamilhakimi19)",
      "license": "CC-BY-4.0 (http://creativecommons.org/licenses/by/4.0/)",
      "source": "https://sketchfab.com/3d-models/jet-plane-1-fd82b47575f745c8af9f51c9a9ebde82",
      "title": "Jet Plane 1"
    },
    "generator": "Sketchfab-12.68.0",
    "version": "2.0"
  },
  "bufferViews": [
    {
      "buffer": 0,
      "byteLength": 14616,
      "name": "floatBufferViews",
      "target": 34963
    },
    {
      "buffer": 0,
      "byteLength": 14440,
      "byteOffset": 14616,
      "byteStride": 8,
      "name": "floatBufferViews",
      "target": 34962
    },
    {
      "buffer": 0,
      "byteLength": 43320,
      "byteOffset": 29056,
      "byteStride": 12,
      "name": "floatBufferViews",
      "target": 34962
    },
    {
      "buffer": 0,
      "byteLength": 28880,
      "byteOffset": 72376,
      "byteStride": 16,
      "name": "floatBufferViews",
      "target": 34962
    },
    {
      "buffer": 0,
      "byteLength": 4,
      "byteOffset": 101256,
      "name": "floatBufferViews"
    },
    {
      "buffer": 0,
      "byteLength": 16,
      "byteOffset": 101260,
      "byteStride": 16,
      "name": "floatBufferViews"
    }
  ],
  "buffers": [
    {
      "byteLength": 101276,
      "uri": "scene.bin"
    }
  ],
  "images": [
    {
      "uri": "textures/Material_29_baseColor.jpeg"
    },
    {
      "uri": "textures/Material_29_metallicRoughness.png"
    },
    {
      "uri": "textures/Material_29_normal.png"
    }
  ],
  "materials": [
    {
      "doubleSided": true,
      "name": "Material_29",
      "normalTexture": {
        "index": 2
      },
      "occlusionTexture": {
        "index": 1
      },
      "pbrMetallicRoughness": {
        "baseColorTexture": {
          "index": 0
        },
        "metallicRoughnessTexture": {
          "index": 1
        },
        "roughnessFactor": 0.07145579268292679
      }
    }
  ],
  "meshes": [
    {
      "name": "Cone001_Material #29_0",
      "primitives": [
        {
          "attributes": {
            "NORMAL": 1,
            "POSITION": 0,
            "TANGENT": 2,
            "TEXCOORD_0": 3
          },
          "indices": 4,
          "material": 0,
          "mode": 4
        }
      ]
    }
  ],
  "nodes": [
    {
      "children": [
        1
      ],
      "matrix": [
        1.0,
        0.0,
        0.0,
        0.0,
        0.0,
        2.220446049250313e-16,
        -1.0,
        0.0,
        0.0,
        1.0,
        2.220446049250313e-16,
        0.0,
        0.0,
        0.0,
        0.0,
        1.0
      ],
      "name": "Sketchfab_model"
    },
    {
      "children": [
        2
      ],
      "matrix": [
        1.0,
        0.0,
        0.0,
        0.0,
        0.0,
        0.0,
        1.0,
        0.0,
        0.0,
        -1.0,
        0.0,
        0.0,
        0.0,
        0.0,
        0.0,
        1.0
      ],
      "name": "5f2a4a5cd79448c9b66e41da198f87a1.fbx"
    },
    {
      "children": [
        3
      ],
      "name": "Object_2"
    },
    {
      "children": [
        4
      ],
      "name": "RootNode"
    },
    {
      "children": [
        5
      ],
      "name": "Cone001",
      "rotation": [
        0.0010291128419339657,
        0.707704484462738,
        -0.0010309470817446709,
        0.7065070867538452
      ],
      "scale": [
        1.284700632095337,
        1.3406323194503784,
        0.7889491319656372
      ],
      "translation": [
        25.961078643798828,
        134.17747497558594,
        5.8145904541015625
      ]
    },
    {
      "children": [
        6
      ],
      "matrix": [
        1.0,
        0.0,
        -0.0,
        0.0,
        0.0,
        1.0,
        0.0,
        0.0,
        0.0,
        0.0,
        1.0,
        0.0,
        -0.23077566921710968,
        -19.658674240112305,
        134.40667724609375,
        1.0
      ],
      "name": "Object_5"
    },
    {
      "mesh": 0,
      "name": "Cone001_Material #29_0"
    }
  ],
  "samplers": [
    {
      "magFilter": 9729,
      "minFilter": 9987,
      "wrapS": 10497,
      "wrapT": 10497
    }
  ],
  "scene": 0,
  "scenes": [
    {
      "name": "Sketchfab_Scene",
      "nodes": [
        0
      ]
    }
  ],
  "textures": [
    {
      "sampler": 0,
      "source": 0
    },
    {
      "sampler": 0,
      "source": 1
    },
    {
      "sampler": 0,
      "source": 2
    }
  ]
}
