{
  "accessors": [
    {
      "bufferView": 3,
      "componentType": 5126,
      "count": 2267,
      "max": [
        5.828400135040283,
        8.988300323486328,
        2.4821996688842773
      ],
      "min": [
        -5.828400135040283,
        0.0008999542333185673,
        -1.7298002243041992
      ],
      "type": "VEC3"
    },
    {
      "bufferView": 3,
      "byteOffset": 27204,
      "componentType": 5126,
      "count": 2267,
      "max": [
        1.0,
        1.0,
        1.0
      ],
      "min": [
        -1.0,
        -1.0,
        -1.0
      ],
      "type": "VEC3"
    },
    {
      "bufferView": 2,
      "componentType": 5126,
      "count": 2267,
      "max": [
        1.9984999895095825,
        1.3276000022888184
      ],
      "min": [
        -1.9249999523162842,
        -0.9986000061035156
      ],
      "type": "VEC2"
    },
    {
      "bufferView": 1,
      "componentType": 5125,
      "count": 7434,
      "type": "SCALAR"
    },
    {
      "bufferView": 5,
      "componentType": 5126,
      "count": 45,
      "max": [
        1.0,
        3.0190724942258385e-07,
        1.0,
        0.0,
        0.0,
        1.0,
        0.048248812556266785,
        0.0,
        0.8762156963348389,
        0.4819191098213196,
        1.0,
        0.0,
        5.07601261138916,
        0.15636767446994781,
        1.0619995594024658,
        1.0
      ],
      "min": [
        -3.2410954986517027e-07,
        -4.1129050032395753e-07,
        -1.0,
        0.0,
        -0.9993777871131897,
        -0.03527155891060829,
        -0.14212051033973694,
        0.0,
        -0.0712476447224617,
        -0.9993777871131897,
        -4.0108960774887237e-07,
        0.0,
        -5.061004161834717,
        -8.370490074157715,
        -1.3355649709701538,
        1.0
      ],
      "type": "MAT4"
    },
    {
      "bufferView": 0,
      "componentType": 5123,
      "count": 2267,
      "type": "VEC4"
    },
    {
      "bufferView": 4,
      "componentType": 5126,
      "count": 2267,
      "max": [
        1.0,
        0.0,
        0.0,
        0.0
      ],
      "min": [
        1.0,
        0.0,
        0.0,
        0.0
      ],
      "type": "VEC4"
    }
  ],
  "asset": {
    "extras": {
      "author": "jabbari.parsa91 (https://sketchfab.com/jabbari.parsa91)",
      "license": "CC-BY-4.0 (http://creativecommons.org/licenses/by/4.0/)",
      "source": "https://sketchfab.com/3d-models/spongebob-ripped-pants-26f97a0ab3f44346b1c8d3188dc669e7",
      "title": "SpongeBob Ripped Pants"
    },
    "generator": "Sketchfab-14.38.0",
    "version": "2.0"
  },
  "bufferViews": [
    {
      "buffer": 0,
      "byteLength": 18136,
      "byteStride": 8,
      "name": "shortBufferViews",
      "target": 34962
    },
    {
      "buffer": 0,
      "byteLength": 29736,
      "byteOffset": 18136,
      "name": "floatBufferViews",
      "target": 34963
    },
    {
      "buffer": 0,
      "byteLength": 18136,
      "byteOffset": 47872,
      "byteStride": 8,
      "name": "floatBufferViews",
      "target": 34962
    },
    {
      "buffer": 0,
      "byteLength": 54408,
      "byteOffset": 66008,
      "byteStride": 12,
      "name": "floatBufferViews",
      "target": 34962
    },
    {
      "buffer": 0,
      "byteLength": 36272,
      "byteOffset": 120416,
      "byteStride": 16,
      "name": "floatBufferViews",
      "target": 34962
    },
    {
      "buffer": 0,
      "byteLength": 2880,
      "byteOffset": 156688,
      "name": "floatBufferViews"
    }
  ],
  "buffers": [
    {
      "byteLength": 159568,
      "uri": "scene.bin"
    }
  ],
  "images": [
    {
      "uri": "textures/sb_PlsC.png_baseColor.png"
    }
  ],
  "materials": [
    {
      "doubleSided": true,
      "name": "sb_PlsC.png",
      "pbrMetallicRoughness": {
        "baseColorTexture": {
          "index": 0
        },
        "metallicFactor": 0.0,
        "roughnessFactor": 0.0
      }
    }
  ],
  "meshes": [
    {
      "name": "Material #81_sb_PlsC.png_0",
      "primitives": [
        {
          "attributes": {
            "JOINTS_0": 5,
            "NORMAL": 1,
            "POSITION": 0,
            "TEXCOORD_0": 2,
            "TEXCOORD_1": 2,
            "TEXCOORD_2": 2,
            "TEXCOORD_3": 2,
            "TEXCOORD_4": 2,
            "TEXCOORD_5": 2,
            "TEXCOORD_6": 2,
            "TEXCOORD_7": 2,
            "TEXCOORD_8": 2,
            "TEXCOORD_9": 2,
            "WEIGHTS_0": 6
          },
          "indices": 3,
          "material": 0,
          "mode": 4
        }
      ]
    }
  ],
  "nodes": [
    {
      "children": [
        1
      ],
      "matrix": [
        1.0,
        0.0,
        0.0,
        0.0,
        0.0,
        2.220446049250313e-16,
        -1.0,
        0.0,
        0.0,
        1.0,
        2.220446049250313e-16,
        0.0,
        0.0,
        0.0,
        0.0,
        1.0
      ],
      "name": "Sketchfab_model"
    },
    {
      "children": [
        2
      ],
      "matrix": [
        0.009999999776482582,
        0.0,
        0.0,
        0.0,
        0.0,
        0.0,
        0.009999999776482582,
        0.0,
        0.0,
        -0.009999999776482582,
        0.0,
        0.0,
        0.0,
        0.0,
        0.0,
        1.0
      ],
      "name": "6c14a3f5486d413b855b7be1785d2458.fbx"
    },
    {
      "children": [
        3
      ],
      "name": "RootNode"
    },
    {
      "children": [
        4,
        6,
        5
      ],
      "name": "Object_3"
    },
    {
      "children": [
        7
      ],
      "name": "_rootJoint"
    },
    {
      "matrix": [
        1.0,
        0.0,
        0.0,
        0.0,
        0.0,
        1.0,
        0.0,
        0.0,
        0.0,
        0.0,
        1.0,
        0.0,
        0.0,
        -4.440892098500626e-16,
        -1.3877787807814457e-17,
        1.0
      ],
      "name": "Object_5"
    },
    {
      "mesh": 0,
      "name": "Object_6",
      "skin": 0
    },
    {
      "children": [
        8,
        49,
        50
      ],
      "name": "Dummy002_00",
      "rotation": [
        1.4356079702793068e-07,
        0.0,
        0.0,
        1.0
      ]
    },
    {
      "children": [
        9,
        39,
        41,
        45
      ],
      "name": "Dummy003_03",
      "rotation": [
        -1.1990401042655165e-14,
        -0.0,
        0.0,
        1.0
      ],
      "translation": [
        0.0,
        3.2687716484069824,
        0.11023274809122086
      ]
    },
    {
      "children": [
        10,
        20,
        21,
        23,
        31
      ],
      "name": "Dummy006_02",
      "rotation": [
        -3.774746425264271e-15,
        -0.0,
        0.0,
        1.0
      ],
      "translation": [
        0.0,
        0.7889787554740906,
        -0.01801958493888378
      ]
    },
    {
      "children": [
        11,
        12,
        13,
        14,
        15,
        16,
        17,
        18,
        19
      ],
      "name": "Dummy017_04",
      "rotation": [
        -9.76994652307538e-15,
        -0.0,
        0.0,
        1.0
      ],
      "translation": [
        5.558461016360846e-16,
        1.4139771461486816,
        0.05405876040458679
      ]
    },
    {
      "name": "Dummy037_05",
      "rotation": [
        -1.554292435080077e-15,
        -0.0,
        0.0,
        1.0
      ],
      "translation": [
        1.4114710334699773e-15,
        2.8987629413604736,
        -0.45048975944519043
      ]
    },
    {
      "name": "Dummy038_06",
      "rotation": [
        -1.554292435080077e-15,
        -0.0,
        0.0,
        1.0
      ],
      "translation": [
        -7.199421650845746e-16,
        -0.008449018001556396,
        1.1892930269241333
      ]
    },
    {
      "name": "Dummy039_01",
      "rotation": [
        -1.554292435080077e-15,
        -0.0,
        0.0,
        1.0
      ],
      "translation": [
        -7.199421650845746e-16,
        0.5646403431892395,
        1.099194884300232
      ]
    },
    {
      "name": "Dummy040_07",
      "rotation": [
        -1.554292435080077e-15,
        -0.0,
        0.0,
        1.0
      ],
      "translation": [
        0.9269999861717224,
        1.4978828430175781,
        0.15998558700084686
      ]
    },
    {
      "name": "Dummy041_08",
      "rotation": [
        0.07124113291501999,
        0.0,
        0.0,
        0.9974592328071594
      ],
      "translation": [
        0.9269999861717224,
        1.4978828430175781,
        0.15998558700084686
      ]
    },
    {
      "name": "Dummy042_09",
      "rotation": [
        -0.02413157932460308,
        -0.0,
        0.0,
        0.999708890914917
      ],
      "translation": [
        0.9269999861717224,
        1.4978828430175781,
        0.15998558700084686
      ]
    },
    {
      "name": "Dummy043_010",
      "rotation": [
        -1.554292435080077e-15,
        -0.0,
        0.0,
        1.0
      ],
      "translation": [
        -0.9257111549377441,
        1.4978828430175781,
        0.15998558700084686
      ]
    },
    {
      "name": "Dummy044_011",
      "rotation": [
        0.07124113291501999,
        0.0,
        0.0,
        0.9974592328071594
      ],
      "translation": [
        -0.9257111549377441,
        1.4978828430175781,
        0.15998558700084686
      ]
    },
    {
      "name": "Dummy045_012",
      "rotation": [
        -0.02413157932460308,
        -0.0,
        0.0,
        0.999708890914917
      ],
      "translation": [
        -0.9257111549377441,
        1.4978828430175781,
        0.15998558700084686
      ]
    },
    {
      "name": "Dummy018_013",
      "rotation": [
        -9.76994652307538e-15,
        -0.0,
        0.0,
        1.0
      ],
      "translation": [
        -1.6409603697871043e-16,
        0.6290709972381592,
        1.0777745246887207
      ]
    },
    {
      "children": [
        22
      ],
      "name": "Dummy019_014",
      "rotation": [
        -9.76994652307538e-15,
        -0.0,
        0.0,
        1.0
      ],
      "translation": [
        -1.6409603697871043e-16,
        1.0783963203430176,
        0.08229950070381165
      ]
    },
    {
      "name": "Dummy036_016",
      "rotation": [
        -1.554292435080077e-15,
        -0.0,
        0.0,
        1.0
      ],
      "translation": [
        -1.0154216148607976e-15,
        0.006042420864105225,
        0.4897156059741974
      ]
    },
    {
      "children": [
        24,
        30
      ],
      "name": "Dummy020_017",
      "rotation": [
        -9.76994652307538e-15,
        -0.0,
        0.0,
        1.0
      ],
      "translation": [
        2.4950337409973145,
        0.1131851077079773,
        -0.01110119093209505
      ]
    },
    {
      "children": [
        25
      ],
      "name": "Dummy029_018",
      "rotation": [
        -1.554292435080077e-15,
        -0.0,
        0.0,
        1.0
      ],
      "translation": [
        1.285818338394165,
        1.7881475855574536e-07,
        -0.007079822011291981
      ]
    },
    {
      "children": [
        26,
        27,
        28,
        29
      ],
      "name": "Dummy031_019",
      "rotation": [
        -7.549492850528541e-15,
        -0.0,
        0.0,
        1.0
      ],
      "translation": [
        0.7144374251365662,
        1.7881492908600194e-07,
        0.0070798275992274284
      ]
    },
    {
      "name": "Dummy032_020",
      "rotation": [
        6.661615021645573e-16,
        0.0,
        0.0,
        1.0
      ],
      "translation": [
        0.3149891495704651,
        -0.07044267654418945,
        0.26903387904167175
      ]
    },
    {
      "name": "Dummy033_021",
      "rotation": [
        6.661615021645573e-16,
        0.0,
        0.0,
        1.0
      ],
      "translation": [
        0.5657145380973816,
        0.11177694797515869,
        0.14867661893367767
      ]
    },
    {
      "name": "Dummy034_022",
      "rotation": [
        6.661615021645573e-16,
        0.0,
        0.0,
        1.0
      ],
      "translation": [
        0.5623177886009216,
        0.11177694797515869,
        -0.02408466301858425
      ]
    },
    {
      "name": "Dummy035_023",
      "rotation": [
        6.661615021645573e-16,
        0.0,
        0.0,
        1.0
      ],
      "translation": [
        0.5371071696281433,
        0.11177694797515869,
        -0.2101675420999527
      ]
    },
    {
      "name": "Dummy030_024",
      "rotation": [
        -1.554292435080077e-15,
        -0.0,
        0.0,
        1.0
      ],
      "translation": [
        0.09911781549453735,
        1.7881475855574536e-07,
        -0.014159663580358028
      ]
    },
    {
      "children": [
        32,
        38
      ],
      "name": "Dummy021_025",
      "rotation": [
        -9.76994652307538e-15,
        -0.0,
        0.0,
        1.0
      ],
      "translation": [
        -2.4665513038635254,
        0.13124871253967285,
        -0.03489746153354645
      ]
    },
    {
      "children": [
        33
      ],
      "name": "Dummy022_026",
      "rotation": [
        -1.554292435080077e-15,
        -0.0,
        0.0,
        1.0
      ],
      "translation": [
        -1.2924702167510986,
        -0.025455474853515625,
        0.005724790971726179
      ]
    },
    {
      "children": [
        34,
        35,
        36,
        37
      ],
      "name": "Dummy024_027",
      "rotation": [
        -7.549492850528541e-15,
        -0.0,
        0.0,
        1.0
      ],
      "translation": [
        -0.7169292569160461,
        0.008484899997711182,
        0.005724792834371328
      ]
    },
    {
      "name": "Dummy025_028",
      "rotation": [
        6.661615021645573e-16,
        0.0,
        0.0,
        1.0
      ],
      "translation": [
        -0.34821730852127075,
        -0.0668025016784668,
        0.26334017515182495
      ]
    },
    {
      "name": "Dummy026_029",
      "rotation": [
        6.661615021645573e-16,
        0.0,
        0.0,
        1.0
      ],
      "translation": [
        -0.5428137183189392,
        0.138097882270813,
        0.15456923842430115
      ]
    },
    {
      "name": "Dummy027_030",
      "rotation": [
        6.661615021645573e-16,
        0.0,
        0.0,
        1.0
      ],
      "translation": [
        -0.6000617146492004,
        0.138097882270813,
        -2.3282789030076856e-09
      ]
    },
    {
      "name": "Dummy028_031",
      "rotation": [
        6.661615021645573e-16,
        0.0,
        0.0,
        1.0
      ],
      "translation": [
        -0.5428137183189392,
        0.138097882270813,
        -0.19464273750782013
      ]
    },
    {
      "name": "Dummy023_015",
      "rotation": [
        -1.554292435080077e-15,
        -0.0,
        0.0,
        1.0
      ],
      "translation": [
        -0.10877060890197754,
        2.980240481065266e-07,
        -0.005724771413952112
      ]
    },
    {
      "children": [
        40
      ],
      "name": "Dummy007_032",
      "rotation": [
        -3.774746425264271e-15,
        -0.0,
        0.0,
        1.0
      ],
      "translation": [
        8.320017359752859e-32,
        0.39092499017715454,
        1.038153052330017
      ]
    },
    {
      "name": "Dummy016_033",
      "rotation": [
        -9.76994652307538e-15,
        -0.0,
        0.0,
        1.0
      ],
      "translation": [
        -1.8763746486307159e-16,
        -0.6348970532417297,
        0.008355079218745232
      ]
    },
    {
      "children": [
        42
      ],
      "name": "Dummy008_034",
      "rotation": [
        0.5087416172027588,
        -0.4911031126976013,
        0.508741557598114,
        -0.49110275506973267
      ],
      "translation": [
        1.062000036239624,
        -0.5189768671989441,
        -0.050818875432014465
      ]
    },
    {
      "children": [
        43
      ],
      "name": "Dummy013_035",
      "rotation": [
        -2.769124346328495e-15,
        8.205459093563031e-16,
        0.053268250077962875,
        0.9985803365707397
      ],
      "translation": [
        1.330567717552185,
        -2.8898369919261313e-07,
        2.1182368925565243e-07
      ]
    },
    {
      "children": [
        44
      ],
      "name": "Dummy014_036",
      "rotation": [
        0.8421003818511963,
        -0.5393208265304565,
        4.0717580418458965e-08,
        -6.357681314739239e-08
      ],
      "translation": [
        0.7936866879463196,
        0.021995117887854576,
        1.0833365138296358e-07
      ]
    },
    {
      "name": "Dummy015_037",
      "rotation": [
        -0.17591482400894165,
        0.6848751306533813,
        0.17591480910778046,
        0.6848751902580261
      ],
      "translation": [
        0.7141616344451904,
        -8.150789909677769e-08,
        -3.339052812023624e-09
      ]
    },
    {
      "children": [
        46
      ],
      "name": "Dummy009_038",
      "rotation": [
        0.5087416172027588,
        -0.4911031126976013,
        0.508741557598114,
        -0.49110275506973267
      ],
      "translation": [
        -1.0606664419174194,
        -0.5189768671989441,
        -0.050818875432014465
      ]
    },
    {
      "children": [
        47
      ],
      "name": "Dummy010_039",
      "rotation": [
        -2.769124346328495e-15,
        8.205459093563031e-16,
        0.053268250077962875,
        0.9985803365707397
      ],
      "translation": [
        1.3305671215057373,
        -4.471226500157854e-09,
        2.0437299497189088e-07
      ]
    },
    {
      "children": [
        48
      ],
      "name": "Dummy011_040",
      "rotation": [
        0.8421003818511963,
        -0.5393208265304565,
        4.0717580418458965e-08,
        -6.357681314739239e-08
      ],
      "translation": [
        0.793687641620636,
        0.02199479192495346,
        1.0088286472864638e-07
      ]
    },
    {
      "name": "Dummy012_041",
      "rotation": [
        -0.17591482400894165,
        0.6848751306533813,
        0.17591480910778046,
        0.6848751902580261
      ],
      "translation": [
        0.7141618728637695,
        3.120679537005344e-08,
        4.1119294635905135e-09
      ]
    },
    {
      "name": "Dummy004_042",
      "rotation": [
        -1.1990401042655165e-14,
        -0.0,
        0.0,
        1.0
      ],
      "translation": [
        1.2789082527160645,
        0.6356539726257324,
        0.024445969611406326
      ]
    },
    {
      "name": "Dummy005_043",
      "rotation": [
        -1.1990401042655165e-14,
        -0.0,
        0.0,
        1.0
      ],
      "translation": [
        -1.2960174083709717,
        0.6356539726257324,
        0.024445969611406326
      ]
    }
  ],
  "samplers": [
    {
      "magFilter": 9729,
      "minFilter": 9987,
      "wrapS": 10497,
      "wrapT": 10497
    }
  ],
  "scene": 0,
  "scenes": [
    {
      "name": "Sketchfab_Scene",
      "nodes": [
        0
      ]
    }
  ],
  "skins": [
    {
      "inverseBindMatrices": 4,
      "joints": [
        4,
        7,
        8,
        9,
        10,
        11,
        12,
        13,
        14,
        15,
        16,
        17,
        18,
        19,
        20,
        21,
        22,
        23,
        24,
        25,
        26,
        27,
        28,
        29,
        30,
        31,
        32,
        33,
        34,
        35,
        36,
        37,
        38,
        39,
        40,
        41,
        42,
        43,
        44,
        45,
        46,
        47,
        48,
        49,
        50
      ],
      "skeleton": 4
    }
  ],
  "textures": [
    {
      "sampler": 0,
      "source": 0
    }
  ]
}
